<mxfile host="app.diagrams.net" agent="Mozilla/5.0 (Windows NT 10.0; Win64; x64) AppleWebKit/537.36 (KHTML, like Gecko) Chrome/139.0.0.0 Safari/537.36" version="28.1.2">
  <diagram name="Page-1" id="n2QJ4CPygrfTML7OndHj">
    <mxGraphModel dx="1200" dy="185" grid="1" gridSize="10" guides="1" tooltips="1" connect="1" arrows="1" fold="1" page="1" pageScale="1" pageWidth="850" pageHeight="1100" math="0" shadow="0">
      <root>
        <mxCell id="0" />
        <mxCell id="1" parent="0" />
        <mxCell id="3JOCjXKQnqE9Oh0YHAnC-1" value="" style="rounded=0;whiteSpace=wrap;html=1;strokeWidth=3;fontSize=20;container=0;fontStyle=1" vertex="1" parent="1">
          <mxGeometry x="82" y="80" width="173" height="192" as="geometry" />
        </mxCell>
        <mxCell id="3JOCjXKQnqE9Oh0YHAnC-2" value="D" style="text;html=1;align=center;verticalAlign=middle;resizable=0;points=[];autosize=1;strokeColor=none;fillColor=none;strokeWidth=3;fontSize=20;container=0;fontStyle=1" vertex="1" parent="1">
          <mxGeometry x="87" y="96" width="40" height="40" as="geometry" />
        </mxCell>
        <mxCell id="3JOCjXKQnqE9Oh0YHAnC-3" value="CLK" style="text;html=1;align=center;verticalAlign=middle;resizable=0;points=[];autosize=1;strokeColor=none;fillColor=none;strokeWidth=3;fontSize=20;container=0;fontStyle=1" vertex="1" parent="1">
          <mxGeometry x="96" y="212" width="60" height="40" as="geometry" />
        </mxCell>
        <mxCell id="3JOCjXKQnqE9Oh0YHAnC-4" value="Q" style="text;html=1;align=center;verticalAlign=middle;resizable=0;points=[];autosize=1;strokeColor=none;fillColor=none;strokeWidth=3;fontSize=20;container=0;fontStyle=1" vertex="1" parent="1">
          <mxGeometry x="210" y="96" width="40" height="40" as="geometry" />
        </mxCell>
        <mxCell id="3JOCjXKQnqE9Oh0YHAnC-5" value="" style="triangle;whiteSpace=wrap;html=1;strokeWidth=3;fillColor=#33001A;strokeColor=#33001A;fontColor=#ffffff;" vertex="1" parent="1">
          <mxGeometry x="82" y="221" width="19" height="22" as="geometry" />
        </mxCell>
        <mxCell id="3JOCjXKQnqE9Oh0YHAnC-6" value="" style="ellipse;whiteSpace=wrap;html=1;aspect=fixed;strokeWidth=3;" vertex="1" parent="1">
          <mxGeometry x="70" y="226.5" width="11" height="11" as="geometry" />
        </mxCell>
        <mxCell id="3JOCjXKQnqE9Oh0YHAnC-7" value="" style="rounded=0;whiteSpace=wrap;html=1;strokeWidth=3;fontSize=20;container=0;fontStyle=1" vertex="1" parent="1">
          <mxGeometry x="482" y="80" width="173" height="192" as="geometry" />
        </mxCell>
        <mxCell id="3JOCjXKQnqE9Oh0YHAnC-8" value="D" style="text;html=1;align=center;verticalAlign=middle;resizable=0;points=[];autosize=1;strokeColor=none;fillColor=none;strokeWidth=3;fontSize=20;container=0;fontStyle=1" vertex="1" parent="1">
          <mxGeometry x="487" y="96" width="40" height="40" as="geometry" />
        </mxCell>
        <mxCell id="3JOCjXKQnqE9Oh0YHAnC-9" value="CLK" style="text;html=1;align=center;verticalAlign=middle;resizable=0;points=[];autosize=1;strokeColor=none;fillColor=none;strokeWidth=3;fontSize=20;container=0;fontStyle=1" vertex="1" parent="1">
          <mxGeometry x="496" y="212" width="60" height="40" as="geometry" />
        </mxCell>
        <mxCell id="3JOCjXKQnqE9Oh0YHAnC-10" value="Q" style="text;html=1;align=center;verticalAlign=middle;resizable=0;points=[];autosize=1;strokeColor=none;fillColor=none;strokeWidth=3;fontSize=20;container=0;fontStyle=1" vertex="1" parent="1">
          <mxGeometry x="610" y="96" width="40" height="40" as="geometry" />
        </mxCell>
        <mxCell id="3JOCjXKQnqE9Oh0YHAnC-11" value="" style="triangle;whiteSpace=wrap;html=1;strokeWidth=3;fillColor=#33001A;strokeColor=#33001A;fontColor=#ffffff;" vertex="1" parent="1">
          <mxGeometry x="482" y="221" width="19" height="22" as="geometry" />
        </mxCell>
        <mxCell id="3JOCjXKQnqE9Oh0YHAnC-12" value="" style="ellipse;whiteSpace=wrap;html=1;aspect=fixed;strokeWidth=3;" vertex="1" parent="1">
          <mxGeometry x="470" y="226.5" width="11" height="11" as="geometry" />
        </mxCell>
        <mxCell id="3JOCjXKQnqE9Oh0YHAnC-16" value="clk" style="fontStyle=0;labelPosition=right;verticalLabelPosition=middle;align=left;verticalAlign=middle;spacingLeft=2;" vertex="1" parent="1">
          <mxGeometry x="-120" y="101" width="30" height="30" as="geometry" />
        </mxCell>
        <mxCell id="3JOCjXKQnqE9Oh0YHAnC-20" value="d" style="fontStyle=0;labelPosition=right;verticalLabelPosition=middle;align=left;verticalAlign=middle;spacingLeft=2;" vertex="1" parent="1">
          <mxGeometry x="-120" y="161" width="30" height="30" as="geometry" />
        </mxCell>
        <mxCell id="3JOCjXKQnqE9Oh0YHAnC-21" value="q" style="fontStyle=0;labelPosition=right;verticalLabelPosition=middle;align=left;verticalAlign=middle;spacingLeft=2;" vertex="1" parent="1">
          <mxGeometry x="-30" y="160" width="30" height="30" as="geometry" />
        </mxCell>
      </root>
    </mxGraphModel>
  </diagram>
</mxfile>
